<mxfile modified="2023-08-17T10:11:51.508Z" host="Electron" agent="Mozilla/5.0 (Macintosh; Intel Mac OS X 10_15_7) AppleWebKit/537.36 (KHTML, like Gecko) draw.io/21.6.5 Chrome/114.0.5735.243 Electron/25.3.1 Safari/537.36" etag="GDQ9w1cd5WFOktFRgLSB" version="21.6.5" type="device">
  <diagram id="Ht1M8jgEwFfnCIfOTk4-" name="Page-1">
    <mxGraphModel dx="1800" dy="1038" grid="1" gridSize="10" guides="1" tooltips="1" connect="1" arrows="1" fold="1" page="1" pageScale="1" pageWidth="1169" pageHeight="827" math="0" shadow="0">
      <root>
        <mxCell id="0" />
        <mxCell id="1" parent="0" />
        <mxCell id="UEzPUAAOIrF-is8g5C7q-109" value="Admin Dashboard" style="outlineConnect=0;gradientColor=none;fontColor=#545B64;strokeColor=none;fillColor=#879196;dashed=0;verticalLabelPosition=bottom;verticalAlign=top;align=center;html=1;fontSize=12;fontStyle=0;aspect=fixed;shape=mxgraph.aws4.illustration_desktop;pointerEvents=1;labelBackgroundColor=#ffffff;" parent="1" vertex="1">
          <mxGeometry x="160.5" y="415.5" width="100" height="91" as="geometry" />
        </mxCell>
        <mxCell id="UEzPUAAOIrF-is8g5C7q-114" value="NGINX Proxy" style="outlineConnect=0;fontColor=#232F3E;gradientColor=#945DF2;gradientDirection=north;fillColor=#5A30B5;strokeColor=#ffffff;dashed=0;verticalLabelPosition=bottom;verticalAlign=top;align=center;html=1;fontSize=12;fontStyle=0;aspect=fixed;shape=mxgraph.aws4.resourceIcon;resIcon=mxgraph.aws4.api_gateway;labelBackgroundColor=#ffffff;" parent="1" vertex="1">
          <mxGeometry x="369.5" y="320.5" width="78" height="78" as="geometry" />
        </mxCell>
        <mxCell id="UEzPUAAOIrF-is8g5C7q-116" value="MinIO&amp;nbsp;" style="outlineConnect=0;fontColor=#232F3E;gradientColor=#60A337;gradientDirection=north;fillColor=#277116;strokeColor=#ffffff;dashed=0;verticalLabelPosition=bottom;verticalAlign=top;align=center;html=1;fontSize=12;fontStyle=0;aspect=fixed;shape=mxgraph.aws4.resourceIcon;resIcon=mxgraph.aws4.s3;labelBackgroundColor=#ffffff;" parent="1" vertex="1">
          <mxGeometry x="670.0000000000002" y="70" width="78" height="78" as="geometry" />
        </mxCell>
        <mxCell id="F-5jzw3enc7X4UnOHFdz-1" value="WebExtension" style="outlineConnect=0;gradientColor=none;fontColor=#545B64;strokeColor=none;fillColor=#879196;dashed=0;verticalLabelPosition=bottom;verticalAlign=top;align=center;html=1;fontSize=12;fontStyle=0;aspect=fixed;shape=mxgraph.aws4.illustration_desktop;pointerEvents=1;labelBackgroundColor=#ffffff;" vertex="1" parent="1">
          <mxGeometry x="160.5" y="220" width="100" height="91" as="geometry" />
        </mxCell>
        <mxCell id="F-5jzw3enc7X4UnOHFdz-10" value="" style="edgeStyle=orthogonalEdgeStyle;html=1;endArrow=block;elbow=vertical;startArrow=block;startFill=1;endFill=1;strokeColor=#545B64;rounded=0;" edge="1" parent="1" source="F-5jzw3enc7X4UnOHFdz-1">
          <mxGeometry width="100" relative="1" as="geometry">
            <mxPoint x="270" y="360" as="sourcePoint" />
            <mxPoint x="370" y="360" as="targetPoint" />
            <Array as="points">
              <mxPoint x="320" y="260" />
              <mxPoint x="320" y="360" />
            </Array>
          </mxGeometry>
        </mxCell>
        <mxCell id="F-5jzw3enc7X4UnOHFdz-11" value="" style="edgeStyle=orthogonalEdgeStyle;html=1;endArrow=block;elbow=vertical;startArrow=block;startFill=1;endFill=1;strokeColor=#545B64;rounded=0;" edge="1" parent="1">
          <mxGeometry width="100" relative="1" as="geometry">
            <mxPoint x="260" y="450" as="sourcePoint" />
            <mxPoint x="369.5" y="370" as="targetPoint" />
            <Array as="points">
              <mxPoint x="260" y="450" />
              <mxPoint x="320" y="450" />
              <mxPoint x="320" y="370" />
            </Array>
          </mxGeometry>
        </mxCell>
        <mxCell id="F-5jzw3enc7X4UnOHFdz-12" value="MongoDB" style="sketch=0;points=[[0,0,0],[0.25,0,0],[0.5,0,0],[0.75,0,0],[1,0,0],[0,1,0],[0.25,1,0],[0.5,1,0],[0.75,1,0],[1,1,0],[0,0.25,0],[0,0.5,0],[0,0.75,0],[1,0.25,0],[1,0.5,0],[1,0.75,0]];outlineConnect=0;fontColor=#232F3E;gradientColor=#4D72F3;gradientDirection=north;fillColor=#3334B9;strokeColor=#ffffff;dashed=0;verticalLabelPosition=bottom;verticalAlign=top;align=center;html=1;fontSize=12;fontStyle=0;aspect=fixed;shape=mxgraph.aws4.resourceIcon;resIcon=mxgraph.aws4.database;" vertex="1" parent="1">
          <mxGeometry x="550" y="70" width="78" height="78" as="geometry" />
        </mxCell>
        <mxCell id="F-5jzw3enc7X4UnOHFdz-14" value="Promtail&lt;br&gt;" style="sketch=0;outlineConnect=0;fontColor=#232F3E;gradientColor=#F34482;gradientDirection=north;fillColor=#BC1356;strokeColor=#ffffff;dashed=0;verticalLabelPosition=bottom;verticalAlign=top;align=center;html=1;fontSize=12;fontStyle=0;aspect=fixed;shape=mxgraph.aws4.resourceIcon;" vertex="1" parent="1">
          <mxGeometry x="790" y="70" width="78" height="78" as="geometry" />
        </mxCell>
        <mxCell id="F-5jzw3enc7X4UnOHFdz-13" value="" style="shape=image;verticalLabelPosition=bottom;labelBackgroundColor=default;verticalAlign=top;aspect=fixed;imageAspect=0;image=https://www.startpage.com/av/proxy-image?piurl=https%3A%2F%2Fartifacthub.io%2Fimage%2Fc3c27bcf-e74a-416f-85bb-111ccf93966e%403x&amp;sp=1692265902T765f3821c2381e01601fb2ebb46edef5d90c58963bb90bea159fbc94cfdb597e;" vertex="1" parent="1">
          <mxGeometry x="797" y="77" width="64" height="64" as="geometry" />
        </mxCell>
        <mxCell id="F-5jzw3enc7X4UnOHFdz-16" value="Loki" style="sketch=0;outlineConnect=0;fontColor=#232F3E;gradientColor=#F34482;gradientDirection=north;fillColor=#BC1356;strokeColor=#ffffff;dashed=0;verticalLabelPosition=bottom;verticalAlign=top;align=center;html=1;fontSize=12;fontStyle=0;aspect=fixed;shape=mxgraph.aws4.resourceIcon;" vertex="1" parent="1">
          <mxGeometry x="910" y="70" width="78" height="78" as="geometry" />
        </mxCell>
        <mxCell id="F-5jzw3enc7X4UnOHFdz-17" value="" style="shape=image;verticalLabelPosition=bottom;labelBackgroundColor=default;verticalAlign=top;aspect=fixed;imageAspect=0;image=https://www.startpage.com/av/proxy-image?piurl=https%3A%2F%2Fartifacthub.io%2Fimage%2Fc3c27bcf-e74a-416f-85bb-111ccf93966e%403x&amp;sp=1692265902T765f3821c2381e01601fb2ebb46edef5d90c58963bb90bea159fbc94cfdb597e;" vertex="1" parent="1">
          <mxGeometry x="917" y="77" width="64" height="64" as="geometry" />
        </mxCell>
        <mxCell id="F-5jzw3enc7X4UnOHFdz-21" value="Infrastructure Components" style="points=[[0,0],[0.25,0],[0.5,0],[0.75,0],[1,0],[1,0.25],[1,0.5],[1,0.75],[1,1],[0.75,1],[0.5,1],[0.25,1],[0,1],[0,0.75],[0,0.5],[0,0.25]];outlineConnect=0;gradientColor=none;html=1;whiteSpace=wrap;fontSize=12;fontStyle=0;container=1;pointerEvents=0;collapsible=0;recursiveResize=0;shape=mxgraph.aws4.group;grIcon=mxgraph.aws4.group_on_premise;strokeColor=#5A6C86;fillColor=none;verticalAlign=top;align=left;spacingLeft=30;fontColor=#5A6C86;dashed=0;" vertex="1" parent="1">
          <mxGeometry x="520" y="40" width="510" height="150" as="geometry" />
        </mxCell>
        <mxCell id="F-5jzw3enc7X4UnOHFdz-22" value="Server Components" style="points=[[0,0],[0.25,0],[0.5,0],[0.75,0],[1,0],[1,0.25],[1,0.5],[1,0.75],[1,1],[0.75,1],[0.5,1],[0.25,1],[0,1],[0,0.75],[0,0.5],[0,0.25]];outlineConnect=0;gradientColor=none;html=1;whiteSpace=wrap;fontSize=12;fontStyle=0;container=1;pointerEvents=0;collapsible=0;recursiveResize=0;shape=mxgraph.aws4.group;grIcon=mxgraph.aws4.group_on_premise;strokeColor=#5A6C86;fillColor=none;verticalAlign=top;align=left;spacingLeft=30;fontColor=#5A6C86;dashed=0;" vertex="1" parent="1">
          <mxGeometry x="520" y="220" width="510" height="300" as="geometry" />
        </mxCell>
        <mxCell id="UEzPUAAOIrF-is8g5C7q-115" value="Auth" style="outlineConnect=0;fontColor=#232F3E;gradientColor=none;fillColor=#D05C17;strokeColor=none;dashed=0;verticalLabelPosition=bottom;verticalAlign=top;align=center;html=1;fontSize=12;fontStyle=0;aspect=fixed;pointerEvents=1;shape=mxgraph.aws4.lambda_function;labelBackgroundColor=#ffffff;" parent="F-5jzw3enc7X4UnOHFdz-22" vertex="1">
          <mxGeometry x="40" y="60" width="78" height="78" as="geometry" />
        </mxCell>
        <mxCell id="F-5jzw3enc7X4UnOHFdz-24" value="Requests" style="outlineConnect=0;fontColor=#232F3E;gradientColor=none;fillColor=#D05C17;strokeColor=none;dashed=0;verticalLabelPosition=bottom;verticalAlign=top;align=center;html=1;fontSize=12;fontStyle=0;aspect=fixed;pointerEvents=1;shape=mxgraph.aws4.lambda_function;labelBackgroundColor=#ffffff;" vertex="1" parent="F-5jzw3enc7X4UnOHFdz-22">
          <mxGeometry x="162" y="60" width="78" height="78" as="geometry" />
        </mxCell>
        <mxCell id="F-5jzw3enc7X4UnOHFdz-25" value="Download" style="outlineConnect=0;fontColor=#232F3E;gradientColor=none;fillColor=#D05C17;strokeColor=none;dashed=0;verticalLabelPosition=bottom;verticalAlign=top;align=center;html=1;fontSize=12;fontStyle=0;aspect=fixed;pointerEvents=1;shape=mxgraph.aws4.lambda_function;labelBackgroundColor=#ffffff;" vertex="1" parent="F-5jzw3enc7X4UnOHFdz-22">
          <mxGeometry x="400" y="60" width="78" height="78" as="geometry" />
        </mxCell>
        <mxCell id="F-5jzw3enc7X4UnOHFdz-26" value="Users" style="outlineConnect=0;fontColor=#232F3E;gradientColor=none;fillColor=#D05C17;strokeColor=none;dashed=0;verticalLabelPosition=bottom;verticalAlign=top;align=center;html=1;fontSize=12;fontStyle=0;aspect=fixed;pointerEvents=1;shape=mxgraph.aws4.lambda_function;labelBackgroundColor=#ffffff;" vertex="1" parent="F-5jzw3enc7X4UnOHFdz-22">
          <mxGeometry x="40" y="180" width="78" height="78" as="geometry" />
        </mxCell>
        <mxCell id="F-5jzw3enc7X4UnOHFdz-27" value="Training-Runs" style="outlineConnect=0;fontColor=#232F3E;gradientColor=none;fillColor=#D05C17;strokeColor=none;dashed=0;verticalLabelPosition=bottom;verticalAlign=top;align=center;html=1;fontSize=12;fontStyle=0;aspect=fixed;pointerEvents=1;shape=mxgraph.aws4.lambda_function;labelBackgroundColor=#ffffff;" vertex="1" parent="F-5jzw3enc7X4UnOHFdz-22">
          <mxGeometry x="216" y="180" width="78" height="78" as="geometry" />
        </mxCell>
        <mxCell id="F-5jzw3enc7X4UnOHFdz-28" value="Training" style="outlineConnect=0;fontColor=#232F3E;gradientColor=none;fillColor=#D05C17;strokeColor=none;dashed=0;verticalLabelPosition=bottom;verticalAlign=top;align=center;html=1;fontSize=12;fontStyle=0;aspect=fixed;pointerEvents=1;shape=mxgraph.aws4.lambda_function;labelBackgroundColor=#ffffff;" vertex="1" parent="F-5jzw3enc7X4UnOHFdz-22">
          <mxGeometry x="400" y="180" width="78" height="78" as="geometry" />
        </mxCell>
        <mxCell id="F-5jzw3enc7X4UnOHFdz-29" value="" style="shape=image;verticalLabelPosition=bottom;labelBackgroundColor=default;verticalAlign=top;aspect=fixed;imageAspect=0;image=https://www.startpage.com/av/proxy-image?piurl=https%3A%2F%2Fgo.dev%2Fblog%2Fgo-brand%2FGo-Logo%2FPNG%2FGo-Logo_Blue.png&amp;sp=1692266434Tdac10f4cb42f6c7921625bbab59954994de465e03f255cdc78ade0f71f9cc510;" vertex="1" parent="F-5jzw3enc7X4UnOHFdz-22">
          <mxGeometry x="65" y="40" width="69.25" height="61.22" as="geometry" />
        </mxCell>
        <mxCell id="F-5jzw3enc7X4UnOHFdz-30" value="" style="shape=image;verticalLabelPosition=bottom;labelBackgroundColor=default;verticalAlign=top;aspect=fixed;imageAspect=0;image=https://www.startpage.com/av/proxy-image?piurl=https%3A%2F%2Fgo.dev%2Fblog%2Fgo-brand%2FGo-Logo%2FPNG%2FGo-Logo_Blue.png&amp;sp=1692266434Tdac10f4cb42f6c7921625bbab59954994de465e03f255cdc78ade0f71f9cc510;" vertex="1" parent="F-5jzw3enc7X4UnOHFdz-22">
          <mxGeometry x="190" y="40" width="69.25" height="61.22" as="geometry" />
        </mxCell>
        <mxCell id="F-5jzw3enc7X4UnOHFdz-31" value="" style="shape=image;verticalLabelPosition=bottom;labelBackgroundColor=default;verticalAlign=top;aspect=fixed;imageAspect=0;image=https://www.startpage.com/av/proxy-image?piurl=https%3A%2F%2Fgo.dev%2Fblog%2Fgo-brand%2FGo-Logo%2FPNG%2FGo-Logo_Blue.png&amp;sp=1692266434Tdac10f4cb42f6c7921625bbab59954994de465e03f255cdc78ade0f71f9cc510;" vertex="1" parent="F-5jzw3enc7X4UnOHFdz-22">
          <mxGeometry x="420" y="40" width="69.25" height="61.22" as="geometry" />
        </mxCell>
        <mxCell id="F-5jzw3enc7X4UnOHFdz-32" value="" style="shape=image;verticalLabelPosition=bottom;labelBackgroundColor=default;verticalAlign=top;aspect=fixed;imageAspect=0;image=https://www.startpage.com/av/proxy-image?piurl=https%3A%2F%2Fgo.dev%2Fblog%2Fgo-brand%2FGo-Logo%2FPNG%2FGo-Logo_Blue.png&amp;sp=1692266434Tdac10f4cb42f6c7921625bbab59954994de465e03f255cdc78ade0f71f9cc510;" vertex="1" parent="F-5jzw3enc7X4UnOHFdz-22">
          <mxGeometry x="65" y="160" width="69.25" height="61.22" as="geometry" />
        </mxCell>
        <mxCell id="F-5jzw3enc7X4UnOHFdz-33" value="" style="shape=image;verticalLabelPosition=bottom;labelBackgroundColor=default;verticalAlign=top;aspect=fixed;imageAspect=0;image=https://www.startpage.com/av/proxy-image?piurl=https%3A%2F%2Fgo.dev%2Fblog%2Fgo-brand%2FGo-Logo%2FPNG%2FGo-Logo_Blue.png&amp;sp=1692266434Tdac10f4cb42f6c7921625bbab59954994de465e03f255cdc78ade0f71f9cc510;" vertex="1" parent="F-5jzw3enc7X4UnOHFdz-22">
          <mxGeometry x="240" y="160" width="69.25" height="61.22" as="geometry" />
        </mxCell>
        <mxCell id="F-5jzw3enc7X4UnOHFdz-35" value="" style="shape=image;verticalLabelPosition=bottom;labelBackgroundColor=default;verticalAlign=top;aspect=fixed;imageAspect=0;image=https://www.startpage.com/av/proxy-image?piurl=https%3A%2F%2Fupload.wikimedia.org%2Fwikipedia%2Fcommons%2Fthumb%2Fc%2Fc3%2FPython-logo-notext.svg%2F1869px-Python-logo-notext.svg.png&amp;sp=1692266494Te2709685a33526bb44b139a0fa1491b71ba7f64805aa3e8d4277732dee1d4b7f;" vertex="1" parent="F-5jzw3enc7X4UnOHFdz-22">
          <mxGeometry x="450" y="173" width="37.38" height="40.96" as="geometry" />
        </mxCell>
        <mxCell id="F-5jzw3enc7X4UnOHFdz-38" value="Export" style="outlineConnect=0;fontColor=#232F3E;gradientColor=none;fillColor=#D05C17;strokeColor=none;dashed=0;verticalLabelPosition=bottom;verticalAlign=top;align=center;html=1;fontSize=12;fontStyle=0;aspect=fixed;pointerEvents=1;shape=mxgraph.aws4.lambda_function;labelBackgroundColor=#ffffff;" vertex="1" parent="F-5jzw3enc7X4UnOHFdz-22">
          <mxGeometry x="294" y="60" width="78" height="78" as="geometry" />
        </mxCell>
        <mxCell id="F-5jzw3enc7X4UnOHFdz-39" value="" style="shape=image;verticalLabelPosition=bottom;labelBackgroundColor=default;verticalAlign=top;aspect=fixed;imageAspect=0;image=https://www.startpage.com/av/proxy-image?piurl=https%3A%2F%2Fgo.dev%2Fblog%2Fgo-brand%2FGo-Logo%2FPNG%2FGo-Logo_Blue.png&amp;sp=1692266434Tdac10f4cb42f6c7921625bbab59954994de465e03f255cdc78ade0f71f9cc510;" vertex="1" parent="F-5jzw3enc7X4UnOHFdz-22">
          <mxGeometry x="320" y="40" width="69.25" height="61.22" as="geometry" />
        </mxCell>
        <mxCell id="F-5jzw3enc7X4UnOHFdz-53" value="UI Components" style="points=[[0,0],[0.25,0],[0.5,0],[0.75,0],[1,0],[1,0.25],[1,0.5],[1,0.75],[1,1],[0.75,1],[0.5,1],[0.25,1],[0,1],[0,0.75],[0,0.5],[0,0.25]];outlineConnect=0;gradientColor=none;html=1;whiteSpace=wrap;fontSize=12;fontStyle=0;container=1;pointerEvents=0;collapsible=0;recursiveResize=0;shape=mxgraph.aws4.group;grIcon=mxgraph.aws4.group_on_premise;strokeColor=#5A6C86;fillColor=none;verticalAlign=top;align=left;spacingLeft=30;fontColor=#5A6C86;dashed=0;" vertex="1" parent="1">
          <mxGeometry x="520" y="550" width="510" height="150" as="geometry" />
        </mxCell>
        <mxCell id="F-5jzw3enc7X4UnOHFdz-56" value="Grafana" style="sketch=0;points=[[0,0,0],[0.25,0,0],[0.5,0,0],[0.75,0,0],[1,0,0],[0,1,0],[0.25,1,0],[0.5,1,0],[0.75,1,0],[1,1,0],[0,0.25,0],[0,0.5,0],[0,0.75,0],[1,0.25,0],[1,0.5,0],[1,0.75,0]];outlineConnect=0;fontColor=#232F3E;gradientColor=#F54749;gradientDirection=north;fillColor=#C7131F;strokeColor=#ffffff;dashed=0;verticalLabelPosition=bottom;verticalAlign=top;align=center;html=1;fontSize=12;fontStyle=0;aspect=fixed;shape=mxgraph.aws4.resourceIcon;" vertex="1" parent="F-5jzw3enc7X4UnOHFdz-53">
          <mxGeometry x="390" y="30" width="78" height="78" as="geometry" />
        </mxCell>
        <mxCell id="F-5jzw3enc7X4UnOHFdz-57" value="" style="shape=image;verticalLabelPosition=bottom;labelBackgroundColor=default;verticalAlign=top;aspect=fixed;imageAspect=0;image=https://www.startpage.com/av/proxy-image?piurl=https%3A%2F%2Fcdn.icon-icons.com%2Ficons2%2F2699%2FPNG%2F512%2Fgrafana_logo_icon_171048.png&amp;sp=1692266653T151c5df49de6c817b8060ca124269814ed9bd34d192303abe841d58c856b04c0;" vertex="1" parent="F-5jzw3enc7X4UnOHFdz-53">
          <mxGeometry x="400.25" y="40.25" width="57.5" height="57.5" as="geometry" />
        </mxCell>
        <mxCell id="F-5jzw3enc7X4UnOHFdz-58" value="Mongo-Express" style="sketch=0;points=[[0,0,0],[0.25,0,0],[0.5,0,0],[0.75,0,0],[1,0,0],[0,1,0],[0.25,1,0],[0.5,1,0],[0.75,1,0],[1,1,0],[0,0.25,0],[0,0.5,0],[0,0.75,0],[1,0.25,0],[1,0.5,0],[1,0.75,0]];outlineConnect=0;fontColor=#232F3E;gradientColor=#F54749;gradientDirection=north;fillColor=#C7131F;strokeColor=#ffffff;dashed=0;verticalLabelPosition=bottom;verticalAlign=top;align=center;html=1;fontSize=12;fontStyle=0;aspect=fixed;shape=mxgraph.aws4.resourceIcon;" vertex="1" parent="F-5jzw3enc7X4UnOHFdz-53">
          <mxGeometry x="216" y="30" width="78" height="78" as="geometry" />
        </mxCell>
        <mxCell id="F-5jzw3enc7X4UnOHFdz-60" value="" style="shape=image;verticalLabelPosition=bottom;labelBackgroundColor=default;verticalAlign=top;aspect=fixed;imageAspect=0;image=https://www.startpage.com/av/proxy-image?piurl=https%3A%2F%2Fprogramadev.com.br%2Fstatic%2F360b3ef7da0d7f14b487bd1dcaba8d90%2Fcapa-node-express-mongo.png&amp;sp=1692266789T66560f37ccd73732ed4977362398b6f824bfa6a71a5147aba72fc7af3e41eccb;" vertex="1" parent="F-5jzw3enc7X4UnOHFdz-53">
          <mxGeometry x="223.89" y="51.5" width="62.22" height="35" as="geometry" />
        </mxCell>
        <mxCell id="F-5jzw3enc7X4UnOHFdz-61" value="Admin-Dashboard" style="sketch=0;points=[[0,0,0],[0.25,0,0],[0.5,0,0],[0.75,0,0],[1,0,0],[0,1,0],[0.25,1,0],[0.5,1,0],[0.75,1,0],[1,1,0],[0,0.25,0],[0,0.5,0],[0,0.75,0],[1,0.25,0],[1,0.5,0],[1,0.75,0]];outlineConnect=0;fontColor=#232F3E;gradientColor=#F54749;gradientDirection=north;fillColor=#C7131F;strokeColor=#ffffff;dashed=0;verticalLabelPosition=bottom;verticalAlign=top;align=center;html=1;fontSize=12;fontStyle=0;aspect=fixed;shape=mxgraph.aws4.resourceIcon;" vertex="1" parent="F-5jzw3enc7X4UnOHFdz-53">
          <mxGeometry x="40" y="30" width="78" height="78" as="geometry" />
        </mxCell>
        <mxCell id="F-5jzw3enc7X4UnOHFdz-63" value="" style="shape=image;verticalLabelPosition=bottom;labelBackgroundColor=default;verticalAlign=top;aspect=fixed;imageAspect=0;image=https://www.startpage.com/av/proxy-image?piurl=https%3A%2F%2Fnuxt.com%2Fassets%2Fdesign-kit%2Flogo%2Ficon-green.svg&amp;sp=1692266857T958391db204d538977ef5400dea7be1d01cb8600e3eba4a755e511483331eff9;" vertex="1" parent="F-5jzw3enc7X4UnOHFdz-53">
          <mxGeometry x="54" y="44" width="50" height="50" as="geometry" />
        </mxCell>
        <mxCell id="F-5jzw3enc7X4UnOHFdz-64" value="VPC" style="fillColor=none;strokeColor=#147EBA;dashed=1;verticalAlign=top;fontStyle=0;fontColor=#147EBA;whiteSpace=wrap;html=1;" vertex="1" parent="1">
          <mxGeometry x="420" y="10" width="630" height="710" as="geometry" />
        </mxCell>
        <mxCell id="F-5jzw3enc7X4UnOHFdz-67" value="" style="edgeStyle=orthogonalEdgeStyle;html=1;endArrow=block;elbow=vertical;startArrow=block;startFill=1;endFill=1;strokeColor=#545B64;rounded=0;" edge="1" parent="1">
          <mxGeometry width="100" relative="1" as="geometry">
            <mxPoint x="450" y="360" as="sourcePoint" />
            <mxPoint x="520" y="110" as="targetPoint" />
            <Array as="points">
              <mxPoint x="461" y="360" />
              <mxPoint x="461" y="110" />
            </Array>
          </mxGeometry>
        </mxCell>
        <mxCell id="F-5jzw3enc7X4UnOHFdz-68" value="" style="edgeStyle=orthogonalEdgeStyle;html=1;endArrow=block;elbow=vertical;startArrow=block;startFill=1;endFill=1;strokeColor=#545B64;rounded=0;" edge="1" parent="1">
          <mxGeometry width="100" relative="1" as="geometry">
            <mxPoint x="450" y="369.5" as="sourcePoint" />
            <mxPoint x="520" y="600" as="targetPoint" />
            <Array as="points">
              <mxPoint x="461" y="369.5" />
              <mxPoint x="461" y="599.5" />
              <mxPoint x="520" y="599.5" />
            </Array>
          </mxGeometry>
        </mxCell>
        <mxCell id="F-5jzw3enc7X4UnOHFdz-69" value="" style="edgeStyle=orthogonalEdgeStyle;html=1;endArrow=block;elbow=vertical;startArrow=block;startFill=1;endFill=1;strokeColor=#545B64;rounded=0;" edge="1" parent="1">
          <mxGeometry width="100" relative="1" as="geometry">
            <mxPoint x="450" y="370" as="sourcePoint" />
            <mxPoint x="520" y="370" as="targetPoint" />
          </mxGeometry>
        </mxCell>
      </root>
    </mxGraphModel>
  </diagram>
</mxfile>
